<svg xmlns="http://www.w3.org/2000/svg" xmlns:xlink="http://www.w3.org/1999/xlink" contentStyleType="text/css" height="795px" preserveAspectRatio="none" style="width:1245px;height:795px;background:#FFFFFF;" version="1.1" viewBox="0 0 1245 795" width="1245px" zoomAndPan="magnify"><defs/><g><!--class Vehiculo--><g id="elem_Vehiculo"><rect codeLine="1" fill="#F1F1F1" height="145.7813" id="Vehiculo" rx="2.5" ry="2.5" style="stroke:#181818;stroke-width:0.5;" width="206.6396" x="734.5" y="229.78"/><ellipse cx="803.5806" cy="245.78" fill="#ADD1B2" rx="11" ry="11" style="stroke:#181818;stroke-width:1.0;"/><path d="M806.5493,251.4206 Q805.9712,251.7175 805.3306,251.8581 Q804.6899,252.0144 803.9868,252.0144 Q801.4868,252.0144 800.1587,250.3737 Q798.8462,248.7175 798.8462,245.5925 Q798.8462,242.4675 800.1587,240.8112 Q801.4868,239.155 803.9868,239.155 Q804.6899,239.155 805.3306,239.3112 Q805.9868,239.4675 806.5493,239.7644 L806.5493,242.4831 Q805.9243,241.905 805.3306,241.6394 Q804.7368,241.3581 804.1118,241.3581 Q802.7681,241.3581 802.0806,242.4362 Q801.3931,243.4987 801.3931,245.5925 Q801.3931,247.6862 802.0806,248.7644 Q802.7681,249.8269 804.1118,249.8269 Q804.7368,249.8269 805.3306,249.5612 Q805.9243,249.28 806.5493,248.7019 L806.5493,251.4206 Z " fill="#000000"/><text fill="#000000" font-family="sans-serif" font-size="14" lengthAdjust="spacing" textLength="59.9785" x="824.0806" y="250.6267">Vehiculo</text><line style="stroke:#181818;stroke-width:0.5;" x1="735.5" x2="940.1396" y1="261.78" y2="261.78"/><ellipse cx="745.5" cy="275.4284" fill="none" rx="3" ry="3" style="stroke:#038048;stroke-width:1.0;"/><text fill="#000000" font-family="sans-serif" font-size="14" lengthAdjust="spacing" textLength="101.4043" x="754.5" y="278.7751">Int id_vehiculo</text><ellipse cx="745.5" cy="291.7253" fill="none" rx="3" ry="3" style="stroke:#038048;stroke-width:1.0;"/><text fill="#000000" font-family="sans-serif" font-size="14" lengthAdjust="spacing" textLength="167.1865" x="754.5" y="295.072">ModeloVehiculo modelo</text><ellipse cx="745.5" cy="308.0222" fill="none" rx="3" ry="3" style="stroke:#038048;stroke-width:1.0;"/><text fill="#000000" font-family="sans-serif" font-size="14" lengthAdjust="spacing" textLength="112.6221" x="754.5" y="311.3689">String matricula</text><ellipse cx="745.5" cy="324.3191" fill="none" rx="3" ry="3" style="stroke:#038048;stroke-width:1.0;"/><text fill="#000000" font-family="sans-serif" font-size="14" lengthAdjust="spacing" textLength="180.6396" x="754.5" y="327.6657">Int id_traccar note: nuevo</text><ellipse cx="745.5" cy="340.6159" fill="none" rx="3" ry="3" style="stroke:#038048;stroke-width:1.0;"/><text fill="#000000" font-family="sans-serif" font-size="14" lengthAdjust="spacing" textLength="152.3184" x="754.5" y="343.9626">Enum EstadoVehiculo</text><line style="stroke:#181818;stroke-width:0.5;" x1="735.5" x2="940.1396" y1="351.2644" y2="351.2644"/><ellipse cx="745.5" cy="364.9128" fill="#84BE84" rx="3" ry="3" style="stroke:#038048;stroke-width:1.0;"/><text fill="#000000" font-family="sans-serif" font-size="14" lengthAdjust="spacing" textLength="116.4707" x="754.5" y="368.2595">crear(): Vehiculo</text></g><!--class EstadoVehiculo--><g id="elem_EstadoVehiculo"><rect codeLine="11" fill="#F1F1F1" height="113.1875" id="EstadoVehiculo" rx="2.5" ry="2.5" style="stroke:#181818;stroke-width:0.5;" width="157.5439" x="1081.05" y="460.71"/><ellipse cx="1104.1074" cy="476.71" fill="#EB937F" rx="11" ry="11" style="stroke:#181818;stroke-width:1.0;"/><path d="M1108.2167,482.71 L1100.498,482.71 L1100.498,470.3194 L1108.2167,470.3194 L1108.2167,472.4756 L1102.9511,472.4756 L1102.9511,475.1475 L1107.7167,475.1475 L1107.7167,477.3038 L1102.9511,477.3038 L1102.9511,480.5538 L1108.2167,480.5538 L1108.2167,482.71 Z " fill="#000000"/><text fill="#000000" font-family="sans-serif" font-size="14" lengthAdjust="spacing" textLength="107.6387" x="1119.8979" y="481.5567">EstadoVehiculo</text><line style="stroke:#181818;stroke-width:0.5;" x1="1082.05" x2="1237.5939" y1="492.71" y2="492.71"/><text fill="#000000" font-family="sans-serif" font-size="14" lengthAdjust="spacing" textLength="52.6299" x="1087.05" y="509.7051">ACTIVO</text><text fill="#000000" font-family="sans-serif" font-size="14" lengthAdjust="spacing" textLength="145.5439" x="1087.05" y="526.002">EN_MANTENIMIENTO</text><text fill="#000000" font-family="sans-serif" font-size="14" lengthAdjust="spacing" textLength="115.9307" x="1087.05" y="542.2989">BAJA_TEMPORAL</text><text fill="#000000" font-family="sans-serif" font-size="14" lengthAdjust="spacing" textLength="118.1318" x="1087.05" y="558.5957">BAJA_DEFINITIVA</text><line style="stroke:#181818;stroke-width:0.5;" x1="1082.05" x2="1237.5939" y1="565.8975" y2="565.8975"/></g><!--class Sede--><g id="elem_Sede"><rect codeLine="19" fill="#F1F1F1" height="129.4844" id="Sede" rx="2.5" ry="2.5" style="stroke:#181818;stroke-width:0.5;" width="184.5391" x="861.55" y="452.56"/><ellipse cx="932.0695" cy="468.56" fill="#ADD1B2" rx="11" ry="11" style="stroke:#181818;stroke-width:1.0;"/><path d="M935.0383,474.2006 Q934.4602,474.4975 933.8195,474.6381 Q933.1789,474.7944 932.4758,474.7944 Q929.9758,474.7944 928.6477,473.1537 Q927.3352,471.4975 927.3352,468.3725 Q927.3352,465.2475 928.6477,463.5912 Q929.9758,461.935 932.4758,461.935 Q933.1789,461.935 933.8195,462.0912 Q934.4758,462.2475 935.0383,462.5444 L935.0383,465.2631 Q934.4133,464.685 933.8195,464.4194 Q933.2258,464.1381 932.6008,464.1381 Q931.257,464.1381 930.5695,465.2162 Q929.882,466.2787 929.882,468.3725 Q929.882,470.4662 930.5695,471.5444 Q931.257,472.6069 932.6008,472.6069 Q933.2258,472.6069 933.8195,472.3412 Q934.4133,472.06 935.0383,471.4819 L935.0383,474.2006 Z " fill="#000000"/><text fill="#000000" font-family="sans-serif" font-size="14" lengthAdjust="spacing" textLength="35" x="952.5695" y="473.4067">Sede</text><line style="stroke:#181818;stroke-width:0.5;" x1="862.55" x2="1045.0891" y1="484.56" y2="484.56"/><ellipse cx="872.55" cy="498.2084" fill="none" rx="3" ry="3" style="stroke:#038048;stroke-width:1.0;"/><text fill="#000000" font-family="sans-serif" font-size="14" lengthAdjust="spacing" textLength="76.125" x="881.55" y="501.5551">Int id_sede</text><ellipse cx="872.55" cy="514.5053" fill="none" rx="3" ry="3" style="stroke:#038048;stroke-width:1.0;"/><text fill="#000000" font-family="sans-serif" font-size="14" lengthAdjust="spacing" textLength="140.9707" x="881.55" y="517.852">String nombre_sede</text><ellipse cx="872.55" cy="530.8022" fill="none" rx="3" ry="3" style="stroke:#038048;stroke-width:1.0;"/><text fill="#000000" font-family="sans-serif" font-size="14" lengthAdjust="spacing" textLength="150.5068" x="881.55" y="534.1489">Strind direccion_sede</text><ellipse cx="872.55" cy="547.0991" fill="none" rx="3" ry="3" style="stroke:#038048;stroke-width:1.0;"/><text fill="#000000" font-family="sans-serif" font-size="14" lengthAdjust="spacing" textLength="146.2822" x="881.55" y="550.4457">double latitude_sede</text><ellipse cx="872.55" cy="563.3959" fill="none" rx="3" ry="3" style="stroke:#038048;stroke-width:1.0;"/><text fill="#000000" font-family="sans-serif" font-size="14" lengthAdjust="spacing" textLength="158.5391" x="881.55" y="566.7426">double longitude_sede</text><line style="stroke:#181818;stroke-width:0.5;" x1="862.55" x2="1045.0891" y1="574.0444" y2="574.0444"/></g><g id="elem_GMN5"><path d="M885.82,703.65 L885.82,743.9156 A0,0 0 0 0 885.82,743.9156 L1237.8312,743.9156 A0,0 0 0 0 1237.8312,743.9156 L1237.8312,713.65 L1227.8312,703.65 L1055.51,703.65 L987.7,582.44 L1047.51,703.65 L885.82,703.65 A0,0 0 0 0 885.82,703.65 " fill="#FEFFDD" style="stroke:#181818;stroke-width:0.5;"/><path d="M1227.8312,703.65 L1227.8312,713.65 L1237.8312,713.65 L1227.8312,703.65 " fill="#FEFFDD" style="stroke:#181818;stroke-width:0.5;"/><text fill="#000000" font-family="sans-serif" font-size="13" lengthAdjust="spacing" textLength="326.8789" x="891.82" y="720.7169">Tal vez no convenga complejizar tanto el negocio,</text><text fill="#000000" font-family="sans-serif" font-size="13" lengthAdjust="spacing" textLength="305.1001" x="891.82" y="735.8497">y que sea una sola gesti&#243;n sin importan d&#243;nde</text></g><!--class ModeloVehiculo--><g id="elem_ModeloVehiculo"><rect codeLine="42" fill="#F1F1F1" height="96.8906" id="ModeloVehiculo" rx="2.5" ry="2.5" style="stroke:#181818;stroke-width:0.5;" width="186.5625" x="639.54" y="468.86"/><ellipse cx="674.333" cy="484.86" fill="#ADD1B2" rx="11" ry="11" style="stroke:#181818;stroke-width:1.0;"/><path d="M677.3017,490.5006 Q676.7236,490.7975 676.083,490.9381 Q675.4423,491.0944 674.7392,491.0944 Q672.2392,491.0944 670.9111,489.4537 Q669.5986,487.7975 669.5986,484.6725 Q669.5986,481.5475 670.9111,479.8912 Q672.2392,478.235 674.7392,478.235 Q675.4423,478.235 676.083,478.3912 Q676.7392,478.5475 677.3017,478.8444 L677.3017,481.5631 Q676.6767,480.985 676.083,480.7194 Q675.4892,480.4381 674.8642,480.4381 Q673.5205,480.4381 672.833,481.5162 Q672.1455,482.5787 672.1455,484.6725 Q672.1455,486.7662 672.833,487.8444 Q673.5205,488.9069 674.8642,488.9069 Q675.4892,488.9069 676.083,488.6412 Q676.6767,488.36 677.3017,487.7819 L677.3017,490.5006 Z " fill="#000000"/><text fill="#000000" font-family="sans-serif" font-size="14" lengthAdjust="spacing" textLength="110.5781" x="692.7314" y="489.7067">ModeloVehiculo</text><line style="stroke:#181818;stroke-width:0.5;" x1="640.54" x2="825.1025" y1="500.86" y2="500.86"/><ellipse cx="650.54" cy="514.5084" fill="none" rx="3" ry="3" style="stroke:#038048;stroke-width:1.0;"/><text fill="#000000" font-family="sans-serif" font-size="14" lengthAdjust="spacing" textLength="160.5625" x="659.54" y="517.8551">Int id_modelo_vehiculo</text><ellipse cx="650.54" cy="530.8053" fill="none" rx="3" ry="3" style="stroke:#038048;stroke-width:1.0;"/><text fill="#000000" font-family="sans-serif" font-size="14" lengthAdjust="spacing" textLength="152.6533" x="659.54" y="534.152">Int id_marca_vehiculo</text><ellipse cx="650.54" cy="547.1022" fill="none" rx="3" ry="3" style="stroke:#038048;stroke-width:1.0;"/><text fill="#000000" font-family="sans-serif" font-size="14" lengthAdjust="spacing" textLength="159.7217" x="659.54" y="550.4489">String nombre_modelo</text><line style="stroke:#181818;stroke-width:0.5;" x1="640.54" x2="825.1025" y1="557.7506" y2="557.7506"/></g><!--class MarcaVehiculo--><g id="elem_MarcaVehiculo"><rect codeLine="36" fill="#F1F1F1" height="96.8906" id="MarcaVehiculo" rx="2.5" ry="2.5" style="stroke:#181818;stroke-width:0.5;" width="178.6533" x="672.5" y="675.34"/><ellipse cx="707.293" cy="691.34" fill="#ADD1B2" rx="11" ry="11" style="stroke:#181818;stroke-width:1.0;"/><path d="M710.2617,696.9806 Q709.6836,697.2775 709.043,697.4181 Q708.4023,697.5744 707.6992,697.5744 Q705.1992,697.5744 703.8711,695.9337 Q702.5586,694.2775 702.5586,691.1525 Q702.5586,688.0275 703.8711,686.3712 Q705.1992,684.715 707.6992,684.715 Q708.4023,684.715 709.043,684.8712 Q709.6992,685.0275 710.2617,685.3244 L710.2617,688.0431 Q709.6367,687.465 709.043,687.1994 Q708.4492,686.9181 707.8242,686.9181 Q706.4805,686.9181 705.793,687.9962 Q705.1055,689.0587 705.1055,691.1525 Q705.1055,693.2462 705.793,694.3244 Q706.4805,695.3869 707.8242,695.3869 Q708.4492,695.3869 709.043,695.1212 Q709.6367,694.84 710.2617,694.2619 L710.2617,696.9806 Z " fill="#000000"/><text fill="#000000" font-family="sans-serif" font-size="14" lengthAdjust="spacing" textLength="102.6689" x="725.6914" y="696.1867">MarcaVehiculo</text><line style="stroke:#181818;stroke-width:0.5;" x1="673.5" x2="850.1533" y1="707.34" y2="707.34"/><ellipse cx="683.5" cy="720.9884" fill="none" rx="3" ry="3" style="stroke:#038048;stroke-width:1.0;"/><text fill="#000000" font-family="sans-serif" font-size="14" lengthAdjust="spacing" textLength="152.6533" x="692.5" y="724.3351">Int id_marca_vehiculo</text><ellipse cx="683.5" cy="737.2853" fill="none" rx="3" ry="3" style="stroke:#038048;stroke-width:1.0;"/><text fill="#000000" font-family="sans-serif" font-size="14" lengthAdjust="spacing" textLength="151.8125" x="692.5" y="740.632">String nombre_marca</text><ellipse cx="683.5" cy="753.5822" fill="none" rx="3" ry="3" style="stroke:#038048;stroke-width:1.0;"/><text fill="#000000" font-family="sans-serif" font-size="14" lengthAdjust="spacing" textLength="78.2031" x="692.5" y="756.9289">Image logo</text><line style="stroke:#181818;stroke-width:0.5;" x1="673.5" x2="850.1533" y1="764.2306" y2="764.2306"/></g><!--class Mantenimiento--><g id="elem_Mantenimiento"><rect codeLine="54" fill="#F1F1F1" height="145.7813" id="Mantenimiento" rx="2.5" ry="2.5" style="stroke:#181818;stroke-width:0.5;" width="223.8047" x="725.92" y="7"/><ellipse cx="780.8399" cy="23" fill="#ADD1B2" rx="11" ry="11" style="stroke:#181818;stroke-width:1.0;"/><path d="M783.8087,28.6406 Q783.2305,28.9375 782.5899,29.0781 Q781.9493,29.2344 781.2462,29.2344 Q778.7462,29.2344 777.418,27.5938 Q776.1055,25.9375 776.1055,22.8125 Q776.1055,19.6875 777.418,18.0313 Q778.7462,16.375 781.2462,16.375 Q781.9493,16.375 782.5899,16.5313 Q783.2462,16.6875 783.8087,16.9844 L783.8087,19.7031 Q783.1837,19.125 782.5899,18.8594 Q781.9962,18.5781 781.3712,18.5781 Q780.0274,18.5781 779.3399,19.6563 Q778.6524,20.7188 778.6524,22.8125 Q778.6524,24.9063 779.3399,25.9844 Q780.0274,27.0469 781.3712,27.0469 Q781.9962,27.0469 782.5899,26.7813 Q783.1837,26.5 783.8087,25.9219 L783.8087,28.6406 Z " fill="#000000"/><text fill="#000000" font-family="sans-serif" font-size="14" lengthAdjust="spacing" textLength="105.4648" x="801.3399" y="27.8467">Mantenimiento</text><line style="stroke:#181818;stroke-width:0.5;" x1="726.92" x2="948.7247" y1="39" y2="39"/><ellipse cx="736.92" cy="52.6484" fill="none" rx="3" ry="3" style="stroke:#038048;stroke-width:1.0;"/><text fill="#000000" font-family="sans-serif" font-size="14" lengthAdjust="spacing" textLength="149.7412" x="745.92" y="55.9951">Int id_mantenimiento</text><ellipse cx="736.92" cy="68.9453" fill="none" rx="3" ry="3" style="stroke:#038048;stroke-width:1.0;"/><text fill="#000000" font-family="sans-serif" font-size="14" lengthAdjust="spacing" textLength="101.4043" x="745.92" y="72.292">Int id_vehiculo</text><ellipse cx="736.92" cy="85.2422" fill="none" rx="3" ry="3" style="stroke:#038048;stroke-width:1.0;"/><text fill="#000000" font-family="sans-serif" font-size="14" lengthAdjust="spacing" textLength="120.4082" x="745.92" y="88.5889">Date fecha_inicio</text><ellipse cx="736.92" cy="101.5391" fill="none" rx="3" ry="3" style="stroke:#038048;stroke-width:1.0;"/><text fill="#000000" font-family="sans-serif" font-size="14" lengthAdjust="spacing" textLength="101.2949" x="745.92" y="104.8857">Date fecha_fin</text><ellipse cx="736.92" cy="117.8359" fill="none" rx="3" ry="3" style="stroke:#038048;stroke-width:1.0;"/><text fill="#000000" font-family="sans-serif" font-size="14" lengthAdjust="spacing" textLength="197.8047" x="745.92" y="121.1826">Enum EstadoMantenimiento</text><ellipse cx="736.92" cy="134.1328" fill="none" rx="3" ry="3" style="stroke:#038048;stroke-width:1.0;"/><text fill="#000000" font-family="sans-serif" font-size="14" lengthAdjust="spacing" textLength="126.2803" x="745.92" y="137.4795">String descripcion</text><line style="stroke:#181818;stroke-width:0.5;" x1="726.92" x2="948.7247" y1="144.7813" y2="144.7813"/></g><!--class EstadoMantenimiento--><g id="elem_EstadoMantenimiento"><rect codeLine="79" fill="#F1F1F1" height="96.8906" id="EstadoMantenimiento" rx="2.5" ry="2.5" style="stroke:#181818;stroke-width:0.5;" width="236.0137" x="975.82" y="254.23"/><ellipse cx="1013.7199" cy="270.23" fill="#EB937F" rx="11" ry="11" style="stroke:#181818;stroke-width:1.0;"/><path d="M1017.8293,276.23 L1010.1105,276.23 L1010.1105,263.8394 L1017.8293,263.8394 L1017.8293,265.9956 L1012.5637,265.9956 L1012.5637,268.6675 L1017.3293,268.6675 L1017.3293,270.8238 L1012.5637,270.8238 L1012.5637,274.0738 L1017.8293,274.0738 L1017.8293,276.23 Z " fill="#000000"/><text fill="#000000" font-family="sans-serif" font-size="14" lengthAdjust="spacing" textLength="153.125" x="1032.8088" y="275.0767">EstadoMantenimiento</text><line style="stroke:#181818;stroke-width:0.5;" x1="976.82" x2="1210.8337" y1="286.23" y2="286.23"/><text fill="#000000" font-family="sans-serif" font-size="14" lengthAdjust="spacing" textLength="61.4551" x="981.82" y="303.2251">ABIERTO</text><text fill="#000000" font-family="sans-serif" font-size="14" lengthAdjust="spacing" textLength="150.377" x="981.82" y="319.522">CERRADO_RESUELTO</text><text fill="#000000" font-family="sans-serif" font-size="14" lengthAdjust="spacing" textLength="224.0137" x="981.82" y="335.8189">CERRADO_IMPOSIBLE_REPARAR</text><line style="stroke:#181818;stroke-width:0.5;" x1="976.82" x2="1210.8337" y1="343.1206" y2="343.1206"/></g><!--class Repuesto--><g id="elem_Repuesto"><rect codeLine="65" fill="#F1F1F1" height="129.4844" id="Repuesto" rx="2.5" ry="2.5" style="stroke:#181818;stroke-width:0.5;" width="278.6494" x="358.5" y="659.05"/><ellipse cx="460.5435" cy="675.05" fill="#ADD1B2" rx="11" ry="11" style="stroke:#181818;stroke-width:1.0;"/><path d="M463.5122,680.6906 Q462.9341,680.9875 462.2935,681.1281 Q461.6528,681.2844 460.9497,681.2844 Q458.4497,681.2844 457.1216,679.6438 Q455.8091,677.9875 455.8091,674.8625 Q455.8091,671.7375 457.1216,670.0813 Q458.4497,668.425 460.9497,668.425 Q461.6528,668.425 462.2935,668.5813 Q462.9497,668.7375 463.5122,669.0344 L463.5122,671.7531 Q462.8872,671.175 462.2935,670.9094 Q461.6997,670.6281 461.0747,670.6281 Q459.731,670.6281 459.0435,671.7063 Q458.356,672.7688 458.356,674.8625 Q458.356,676.9563 459.0435,678.0344 Q459.731,679.0969 461.0747,679.0969 Q461.6997,679.0969 462.2935,678.8313 Q462.8872,678.55 463.5122,677.9719 L463.5122,680.6906 Z " fill="#000000"/><text fill="#000000" font-family="sans-serif" font-size="14" lengthAdjust="spacing" textLength="66.0625" x="481.0435" y="679.8967">Repuesto</text><line style="stroke:#181818;stroke-width:0.5;" x1="359.5" x2="636.1494" y1="691.05" y2="691.05"/><ellipse cx="369.5" cy="704.6984" fill="none" rx="3" ry="3" style="stroke:#038048;stroke-width:1.0;"/><text fill="#000000" font-family="sans-serif" font-size="14" lengthAdjust="spacing" textLength="104.8086" x="378.5" y="708.0451">Int id_repuesto</text><ellipse cx="369.5" cy="720.9953" fill="none" rx="3" ry="3" style="stroke:#038048;stroke-width:1.0;"/><text fill="#000000" font-family="sans-serif" font-size="14" lengthAdjust="spacing" textLength="169.6543" x="378.5" y="724.342">String nombre_repuesto</text><ellipse cx="369.5" cy="737.2922" fill="none" rx="3" ry="3" style="stroke:#038048;stroke-width:1.0;"/><text fill="#000000" font-family="sans-serif" font-size="14" lengthAdjust="spacing" textLength="252.6494" x="378.5" y="740.6389">ModeloVehiculo id_modelo_vehiculo</text><ellipse cx="369.5" cy="753.5891" fill="none" rx="3" ry="3" style="stroke:#038048;stroke-width:1.0;"/><text fill="#000000" font-family="sans-serif" font-size="14" lengthAdjust="spacing" textLength="61.6875" x="378.5" y="756.9357">Int Stock</text><ellipse cx="369.5" cy="769.8859" fill="none" rx="3" ry="3" style="stroke:#038048;stroke-width:1.0;"/><text fill="#000000" font-family="sans-serif" font-size="14" lengthAdjust="spacing" textLength="176.21" x="378.5" y="773.2326">Int umbral_minimo_stock</text><line style="stroke:#181818;stroke-width:0.5;" x1="359.5" x2="636.1494" y1="780.5344" y2="780.5344"/></g><g id="elem_GMN20"><path d="M6,696.09 L6,751.4884 A0,0 0 0 0 6,751.4884 L323.645,751.4884 A0,0 0 0 0 323.645,751.4884 L323.645,727.79 L358.16,723.79 L323.645,719.79 L323.645,706.09 L313.645,696.09 L6,696.09 A0,0 0 0 0 6,696.09 " fill="#FEFFDD" style="stroke:#181818;stroke-width:0.5;"/><path d="M313.645,696.09 L313.645,706.09 L323.645,706.09 L313.645,696.09 " fill="#FEFFDD" style="stroke:#181818;stroke-width:0.5;"/><text fill="#000000" font-family="sans-serif" font-size="13" lengthAdjust="spacing" textLength="292.5127" x="12" y="713.1569">Falta relacionar con bitacora de movimiento,</text><text fill="#000000" font-family="sans-serif" font-size="13" lengthAdjust="spacing" textLength="187.0273" x="12" y="728.2897">con proveedor que lo vende,</text><text fill="#000000" font-family="sans-serif" font-size="13" lengthAdjust="spacing" textLength="141.6226" x="12" y="743.4225">con precio de compra</text></g><!--link Vehiculo to Sede--><g id="link_Vehiculo_Sede"><path codeLine="30" d="M877.26,375.96 C890.79,400.76 900.0704,417.7871 913.2204,441.8771 " fill="none" id="Vehiculo-to-Sede" style="stroke:#181818;stroke-width:1.0;"/><polygon fill="none" points="918.97,452.41,919.6062,445.227,913.2204,441.8771,912.5842,449.0601,918.97,452.41" style="stroke:#181818;stroke-width:1.0;"/><text fill="#000000" font-family="sans-serif" font-size="13" lengthAdjust="spacing" textLength="105.7075" x="900.3" y="418.6269">Tiene asignados</text></g><!--reverse link ModeloVehiculo to MarcaVehiculo--><g id="link_ModeloVehiculo_MarcaVehiculo"><path codeLine="31" d="M740.4637,572.1904 C745.1237,605.0004 750.42,642.39 755.07,675.15 " fill="none" id="ModeloVehiculo-backto-MarcaVehiculo" style="stroke:#181818;stroke-width:1.0;"/><polygon fill="#181818" points="739.62,566.25,736.9253,575.723,740.3231,571.2003,744.8458,574.5981,739.62,566.25" style="stroke:#181818;stroke-width:1.0;"/><text fill="#000000" font-family="sans-serif" font-size="13" lengthAdjust="spacing" textLength="8.2393" x="732.0122" y="585.9106">n</text><text fill="#000000" font-family="sans-serif" font-size="13" lengthAdjust="spacing" textLength="8.271" x="745.5764" y="664.3322">1</text></g><!--reverse link Vehiculo to ModeloVehiculo--><g id="link_Vehiculo_ModeloVehiculo"><path codeLine="32" d="M799.4735,381.3399 C784.3735,411.9199 769.85,441.32 756.38,468.6 " fill="none" id="Vehiculo-backto-ModeloVehiculo" style="stroke:#181818;stroke-width:1.0;"/><polygon fill="#181818" points="802.13,375.96,794.5587,382.2588,799.9162,380.4432,801.7318,385.8008,802.13,375.96" style="stroke:#181818;stroke-width:1.0;"/><text fill="#000000" font-family="sans-serif" font-size="13" lengthAdjust="spacing" textLength="8.2393" x="790.3585" y="395.7335">n</text><text fill="#000000" font-family="sans-serif" font-size="13" lengthAdjust="spacing" textLength="8.271" x="751.1495" y="457.7724">1</text></g><!--reverse link Vehiculo to EstadoVehiculo--><g id="link_Vehiculo_EstadoVehiculo"><path codeLine="33" d="M946.5774,369.1451 C952.1174,372.3651 952.44,372.51 957.82,375.56 C982.38,389.49 990.06,390.32 1013.82,405.56 C1039.8,422.22 1067.05,442.16 1090.88,460.49 " fill="none" id="Vehiculo-backto-EstadoVehiculo" style="stroke:#181818;stroke-width:1.0;"/><polygon fill="#181818" points="941.39,366.13,947.1611,374.1109,945.7129,368.6426,951.1812,367.1943,941.39,366.13" style="stroke:#181818;stroke-width:1.0;"/></g><!--reverse link Mantenimiento to Vehiculo--><g id="link_Mantenimiento_Vehiculo"><path codeLine="49" d="M837.82,159.18 C837.82,183.7 837.82,205.09 837.82,229.59 " fill="none" id="Mantenimiento-backto-Vehiculo" style="stroke:#181818;stroke-width:1.0;"/><polygon fill="#181818" points="837.82,153.18,833.82,162.18,837.82,158.18,841.82,162.18,837.82,153.18" style="stroke:#181818;stroke-width:1.0;"/><text fill="#000000" font-family="sans-serif" font-size="13" lengthAdjust="spacing" textLength="44.04" x="838.82" y="195.8469">Recibe</text><text fill="#000000" font-family="sans-serif" font-size="13" lengthAdjust="spacing" textLength="8.2393" x="829.4499" y="172.9535">n</text><text fill="#000000" font-family="sans-serif" font-size="13" lengthAdjust="spacing" textLength="8.271" x="829.4396" y="218.7313">1</text></g><!--reverse link Mantenimiento to EstadoMantenimiento--><g id="link_Mantenimiento_EstadoMantenimiento"><path codeLine="50" d="M926.1933,157.099 C964.5433,190.179 1004.38,224.53 1038.48,253.94 " fill="none" id="Mantenimiento-backto-EstadoMantenimiento" style="stroke:#181818;stroke-width:1.0;"/><polygon fill="#181818" points="921.65,153.18,925.8523,162.0873,925.4361,156.4458,931.0776,156.0296,921.65,153.18" style="stroke:#181818;stroke-width:1.0;"/></g><!--reverse link Mantenimiento to Repuesto--><g id="link_Mantenimiento_Repuesto"><path codeLine="51" d="M765.192,162.2453 C745.782,185.7653 733.02,203.37 716.82,229.78 C627.94,374.68 555.01,561.93 520.09,658.64 " fill="none" id="Mantenimiento-backto-Repuesto" style="stroke:#181818;stroke-width:1.0;"/><polygon fill="none" points="772.83,152.99,765.9259,155.0717,765.192,162.2453,772.0961,160.1637,772.83,152.99" style="stroke:#181818;stroke-width:1.0;"/><text fill="#000000" font-family="sans-serif" font-size="13" lengthAdjust="spacing" textLength="8.2393" x="758.2656" y="172.7454">n</text><text fill="#000000" font-family="sans-serif" font-size="13" lengthAdjust="spacing" textLength="12.6636" x="509.9053" y="647.7678">m</text></g><!--reverse link ModeloVehiculo to Repuesto--><g id="link_ModeloVehiculo_Repuesto"><path codeLine="75" d="M673.2032,570.188 C641.4532,597.808 605.67,628.94 571.26,658.88 " fill="none" id="ModeloVehiculo-backto-Repuesto" style="stroke:#181818;stroke-width:1.0;"/><polygon fill="#181818" points="677.73,566.25,668.3144,569.1391,673.9576,569.5317,673.5651,575.1749,677.73,566.25" style="stroke:#181818;stroke-width:1.0;"/><text fill="#000000" font-family="sans-serif" font-size="13" lengthAdjust="spacing" textLength="83.186" x="623.37" y="625.1169">Corresponde</text></g><!--SRC=[ZLJ1Rjim3BtxAuYSDcmvx1hiuhOku25E2oVhQO31o8ohpHOpMGwm3lsgVS9-R9GI9x7J5ZlPugCeyZqzgHhR5XxeKQkkPlWT0No0r3ZGPR4xH4Ciuv9gFYOsOHcGfRFQLD2WV0N3ynBEeb9emR2Z6PYETlizYUaQI5g7vR5aY2jBQD-zdnqxYgBdAABBxD1fVBrA7-xa9raKMRnO9OiqIvF5oeUkuYzniKgo-xiydlVhc-GsNQIoAGvrLHX-IIKD1sybSZwQuMPjQHGkeTIMbD9iJaZ9tRecgD5frvLq2R2fpX3fmJC3QtQE6-0DX6vciC8QTlGa9uDYioDJeVmqsvg-woVXqw5n35I3eOgbXO_mpVo2dnr1ImYTGMYvHgYeTVhl7mEjDg2RBLlP2AL4PEGeYeviJgVSdwp9462hAoDqjz58zucPmEVf52QV9f2XLNWKwkMKmUvJZiT7ylTo3AeETMayDBoMGuL2mdv7WvMdk-AJqADHXgK3DgpztwVklI3dH9deGaOtGg8RCj4VEuESb5xJAFL4o23-Ga7s1Pk9bDbs8kyvSUUf8-BEQxvcyHkKgxWXzOY5DbfkrJYwqMRitkoYye6RabfbzTRR0m8rXoxxjeSDsdwOItO7q4Z2DuHREbO_ZgjEIc5TD39NmqKRiDvyDMsSjrxVsGnkiNO8bchqxOlTn8EmrWuLMvJ9vFNR7KRsnlFerlAEg6GRJ2YjYMTBEg6YEVkTtiGMex6jlFodyw_PMcgtB1KySVGAtVity2fDyl3YNITv7j_S5Nco_9hC1w5Kdi5bUZLF1BoFypYFdly1]--></g></svg>