<svg xmlns="http://www.w3.org/2000/svg" xmlns:xlink="http://www.w3.org/1999/xlink" contentStyleType="text/css" height="582px" preserveAspectRatio="none" style="width:1022px;height:582px;background:#FFFFFF;" version="1.1" viewBox="0 0 1022 582" width="1022px" zoomAndPan="magnify"><defs/><g><!--entity m--><g id="elem_m"><ellipse cx="93.9888" cy="240.57" fill="#F1F1F1" rx="8" ry="8" style="stroke:#181818;stroke-width:0.5;"/><path d="M93.9888,248.57 L93.9888,275.57 M80.9888,256.57 L106.9888,256.57 M93.9888,275.57 L80.9888,290.57 M93.9888,275.57 L106.9888,290.57 " fill="none" style="stroke:#181818;stroke-width:0.5;"/><text fill="#000000" font-family="sans-serif" font-size="14" lengthAdjust="spacing" textLength="175.9775" x="6" y="305.0651">Operador Mantenimiento</text></g><g id="elem_ UC1 "><ellipse cx="450.075" cy="40.225" fill="#F1F1F1" rx="131.525" ry="28.705" style="stroke:#181818;stroke-width:0.5;"/><text fill="#000000" font-family="sans-serif" font-size="14" lengthAdjust="spacing" textLength="231.793" x="334.1785" y="43.0717">Registrar ingreso mantenimiento</text></g><g id="elem_ UC2 "><ellipse cx="450.0816" cy="133.2223" fill="#F1F1F1" rx="124.5616" ry="27.3123" style="stroke:#181818;stroke-width:0.5;"/><text fill="#000000" font-family="sans-serif" font-size="14" lengthAdjust="spacing" textLength="217.0615" x="341.5508" y="136.069">registrar salida mantenimiento</text></g><g id="elem_ UC3 "><ellipse cx="450.0761" cy="224.2172" fill="#F1F1F1" rx="132.6861" ry="28.9372" style="stroke:#181818;stroke-width:0.5;"/><text fill="#000000" font-family="sans-serif" font-size="14" lengthAdjust="spacing" textLength="234.2402" x="332.956" y="227.0639">obtener historial mantenimientos</text></g><g id="elem_ UC4 "><ellipse cx="450.0766" cy="316.2233" fill="#F1F1F1" rx="129.4166" ry="28.2833" style="stroke:#181818;stroke-width:0.5;"/><text fill="#000000" font-family="sans-serif" font-size="14" lengthAdjust="spacing" textLength="227.3428" x="336.4053" y="319.07">seguimiento de mantenimientos</text></g><g id="elem_ UC5 "><ellipse cx="450.0763" cy="423.2213" fill="#F1F1F1" rx="208.1063" ry="44.0213" style="stroke:#181818;stroke-width:0.5;"/><text fill="#000000" font-family="sans-serif" font-size="14" lengthAdjust="spacing" textLength="390.0381" x="255.0572" y="426.0679">asignar stock de repuestos a proceso de mantenimieno</text></g><g id="elem_ UC6 "><ellipse cx="450.0755" cy="539.2191" fill="#F1F1F1" rx="173.0955" ry="37.0191" style="stroke:#181818;stroke-width:0.5;"/><text fill="#000000" font-family="sans-serif" font-size="14" lengthAdjust="spacing" textLength="318.2881" x="290.9315" y="542.0658">acceder historial de reparaciones por modelo</text></g><g id="elem_ UC7 "><ellipse cx="867.2881" cy="38.2196" fill="#F1F1F1" rx="149.0981" ry="32.2196" style="stroke:#181818;stroke-width:0.5;"/><text fill="#000000" font-family="sans-serif" font-size="14" lengthAdjust="spacing" textLength="268.6045" x="732.9858" y="41.0663">informar no disponibilidad de vehiculo</text></g><g id="elem_ UC8 "><ellipse cx="867.292" cy="133.2224" fill="#F1F1F1" rx="125.612" ry="27.5224" style="stroke:#181818;stroke-width:0.5;"/><text fill="#000000" font-family="sans-serif" font-size="14" lengthAdjust="spacing" textLength="219.29" x="757.647" y="136.0691">registrar detalles en el historial</text></g><g id="elem_ UC9 "><ellipse cx="867.2893" cy="218.2199" fill="#F1F1F1" rx="98.8993" ry="22.1799" style="stroke:#181818;stroke-width:0.5;"/><text fill="#000000" font-family="sans-serif" font-size="14" lengthAdjust="spacing" textLength="161.6289" x="786.4748" y="221.0665">informar disponibilidad</text></g><g id="elem_ UC10 "><ellipse cx="867.2896" cy="423.2159" fill="#F1F1F1" rx="122.6796" ry="26.9359" style="stroke:#181818;stroke-width:0.5;"/><text fill="#000000" font-family="sans-serif" font-size="14" lengthAdjust="spacing" textLength="213.0625" x="760.7584" y="426.0626">validar disponibilidad de stock</text></g><!--link m to  UC1 --><g id="link_m_ UC1 "><path d="M115.53,231.82 C140,189.91 184.84,124.01 241.98,88.22 C268.96,71.32 295.4115,61.6999 326.4015,54.5999 " fill="none" id="m-to- UC1 " style="stroke:#181818;stroke-width:1.0;"/><polygon fill="#181818" points="332.25,53.26,322.584,51.3709,327.3763,54.3766,324.3706,59.1689,332.25,53.26" style="stroke:#181818;stroke-width:1.0;"/></g><!--link m to  UC2 --><g id="link_m_ UC2 "><path d="M146.7,231.68 C173.84,213.08 208.38,191.9 241.98,178.22 C274.61,164.94 305.9204,156.4958 339.7004,149.6258 " fill="none" id="m-to- UC2 " style="stroke:#181818;stroke-width:1.0;"/><polygon fill="#181818" points="345.58,148.43,335.9634,146.3039,340.6803,149.4265,337.5577,154.1434,345.58,148.43" style="stroke:#181818;stroke-width:1.0;"/></g><!--link m to  UC3 --><g id="link_m_ UC3 "><path d="M182.06,258.91 C228.24,252.91 279.5901,246.244 329.2501,239.784 " fill="none" id="m-to- UC3 " style="stroke:#181818;stroke-width:1.0;"/><polygon fill="#181818" points="335.2,239.01,325.7592,236.2044,330.2418,239.655,326.7912,244.1376,335.2,239.01" style="stroke:#181818;stroke-width:1.0;"/></g><!--link m to  UC4 --><g id="link_m_ UC4 "><path d="M182.06,281.53 C229.06,287.64 281.62,294.4671 331.89,300.9971 " fill="none" id="m-to- UC4 " style="stroke:#181818;stroke-width:1.0;"/><polygon fill="#181818" points="337.84,301.77,329.4302,296.644,332.8817,301.1259,328.3997,304.5773,337.84,301.77" style="stroke:#181818;stroke-width:1.0;"/></g><!--link m to  UC5 --><g id="link_m_ UC5 "><path d="M148.49,308.66 C175.54,326.78 209.44,347.58 241.98,362.22 C264.88,372.53 284.261,379.8052 308.841,387.6052 " fill="none" id="m-to- UC5 " style="stroke:#181818;stroke-width:1.0;"/><polygon fill="#181818" points="314.56,389.42,307.1914,382.8852,309.7942,387.9077,304.7717,390.5104,314.56,389.42" style="stroke:#181818;stroke-width:1.0;"/></g><!--link m to  UC6 --><g id="link_m_ UC6 "><path d="M110.96,308.75 C133.11,357.37 177.82,440.08 241.98,485.22 C261.96,499.28 279.6327,507.8289 303.3427,515.5189 " fill="none" id="m-to- UC6 " style="stroke:#181818;stroke-width:1.0;"/><polygon fill="#181818" points="309.05,517.37,301.7231,510.7885,304.2939,515.8274,299.255,518.3982,309.05,517.37" style="stroke:#181818;stroke-width:1.0;"/></g><!--link  UC1  to  UC7 --><g id="link_ UC1 _ UC7 "><path d="M581.89,39.59 C625.15,39.38 667.5901,39.1797 712.0601,38.9597 " fill="none" id=" UC1 -to- UC7 " style="stroke:#181818;stroke-width:1.0;"/><polygon fill="#181818" points="718.06,38.93,709.0403,34.9746,713.0601,38.9547,709.0799,42.9745,718.06,38.93" style="stroke:#181818;stroke-width:1.0;"/></g><!--link  UC2  to  UC8 --><g id="link_ UC2 _ UC8 "><path d="M575.1,133.22 C627.67,133.22 682.82,133.22 735.48,133.22 " fill="none" id=" UC2 -to- UC8 " style="stroke:#181818;stroke-width:1.0;"/><polygon fill="#181818" points="741.48,133.22,732.48,129.22,736.48,133.22,732.48,137.22,741.48,133.22" style="stroke:#181818;stroke-width:1.0;"/></g><!--link  UC2  to  UC9 --><g id="link_ UC2 _ UC9 "><path d="M542.46,151.93 C617.79,167.35 717.3619,187.7366 787.2119,202.0366 " fill="none" id=" UC2 -to- UC9 " style="stroke:#181818;stroke-width:1.0;"/><polygon fill="#181818" points="793.09,203.24,785.0751,197.5162,788.1916,202.2372,783.4706,205.3536,793.09,203.24" style="stroke:#181818;stroke-width:1.0;"/></g><!--reverse link  UC5  to  UC10 --><g id="link_ UC5 _ UC10 "><path d="M664.69,423.22 C693.98,423.22 717.28,423.22 744.24,423.22 " fill="none" id=" UC5 -backto- UC10 " style="stroke:#181818;stroke-width:1.0;"/><polygon fill="#181818" points="658.69,423.22,667.69,427.22,663.69,423.22,667.69,419.22,658.69,423.22" style="stroke:#181818;stroke-width:1.0;"/></g><!--SRC=[TP7FRiCW3CRlF8MFwI7IbhRh7qsxx3nDchG7eE0crWX4XlJv1sb4WjGUF_FpP_FPu3L0SC3KTW4qCQf0pWfn_XwGfNOCNz86jDGJsk3E83tqGbG_s98FB1d8jepUGR_cDechuFVp5JQYuWnxQKZB9soJM7U9ByZGnGx794q9-qnl4-sn7USNqFWCtILKUcfjMY4uzPTWnc74g3n86DYfz8dIOrbjFpaeXRfOxUuYMQeO6deOObwzqsYMphVKIVRgk8_3RHn1Vd2MBfIIqCdYXXsfSTLpA4FJ6AGnqHuje5d6P_vOp2W7PEYKeDkKFpzOOefbETjBf4KFTVsHpxYefb3RGkqAjI_KbCNTBTSESwrPrOuFQgUv5XtXlQxpbly0]--></g></svg>